<?xml version="1.0" encoding="UTF-8"?>
<svg id="Layer_2" data-name="Layer 2" xmlns="http://www.w3.org/2000/svg" viewBox="0 0 1324.12 301.58">
  <defs>
    <style>
      .cls-1 {
        fill: #fff;
      }
    </style>
  </defs>
  <g id="Layer_1-2" data-name="Layer 1">
    <path class="cls-1" d="M528.47,300.07h-117.28l-136.33-90.04,58.64-38.73,194.97,128.76ZM406.59,2.89L31.62,250.53l42.27,6.24V2.89H0v297.19h73.88L523.87,2.89h-117.28Z"/>
    <g>
      <path class="cls-1" d="M606.01,187.59l.26-29.34V32.23l-.26-29.34h55.54l-.26,29.34v38.78h21.22L714.73,2.88h64.45l-45.06,80.17v1.05l52.14,103.49h-66.29l-34.85-73.88h-23.84v44.54l.26,29.34h-55.54Z"/>
      <path class="cls-1" d="M788.09,95.37c0-62.62,34.06-95.37,94.05-95.37s94.32,32.75,94.32,95.37-34.06,95.37-94.32,95.37-94.05-32.75-94.05-95.37ZM920.4,95.37c0-23.84-6.55-50.83-38.25-50.83s-38.25,26.99-38.25,50.83,6.55,50.83,38.25,50.83,38.25-26.99,38.25-50.83Z"/>
      <path class="cls-1" d="M993.75,187.59v-39.3l60.78-68.12c8.65-9.69,17.55-19.65,26.72-28.82v-1.05c-12.31.52-24.37.52-36.16.52h-46.37V2.88h156.94v38.51l-63.93,71.79c-7.86,8.91-15.46,17.55-23.84,25.94v1.05c12.05-.52,23.32-.52,34.84-.52h55.54v47.94h-164.53Z"/>
      <path class="cls-1" d="M1182.91,187.59l.26-26.2V29.08l-.26-26.2h135.97v44.54h-80.69v25.68h68.9l-.26,42.7h-68.64v27.25h85.93l-.26,44.54h-140.95Z"/>
    </g>
    <g>
      <path class="cls-1" d="M606.09,300.39l.09-9.97v-39.71l-.09-10.39h25.05c22.66,0,31.36,10.99,31.36,29.99s-8.86,30.08-31.87,30.08h-24.54ZM622.36,286.76h7.41c11.42,0,16.1-3.24,16.1-16.7s-4.69-16.1-18.06-16.1h-5.45v32.8Z"/>
      <path class="cls-1" d="M673.49,300.39l.08-8.52v-43.03l-.08-8.52h43.37v13.63h-27.09v9.37h23.26l-.08,13.38h-23.18v10.05h28.8l-.08,13.63h-44.99Z"/>
      <path class="cls-1" d="M727.43,280.54v-.77h16.36v1.19c0,5.37,3.32,7.67,9.71,7.67,5.62,0,9.29-1.7,9.29-5.79,0-3.66-2.56-5.11-15-7.84-10.57-2.3-18.83-5.54-18.83-17.21,0-13.04,9.88-18.66,25.14-18.66s23.26,5.88,23.26,18.06v.51h-16.19v-.43c0-3.92-2.9-5.54-8.18-5.54s-7.75,1.62-7.75,4.69c0,3.41,2.47,4.35,14.57,7.16,12.87,3.07,19.26,6.22,19.26,17.21s-7.07,20.71-26.16,20.71c-17.13,0-25.48-6.9-25.48-20.96Z"/>
      <path class="cls-1" d="M789.97,300.39l.09-8.52v-43.03l-.09-8.52h16.36l-.08,8.52v43.03l.08,8.52h-16.36Z"/>
      <path class="cls-1" d="M848.25,266.05h26.84v25.99c-5.79,5.71-15.17,9.54-26.75,9.54-19.68,0-30.93-11.5-30.93-30.59s11.59-31.61,29.91-31.61c16.53,0,26.24,8.52,27.35,21.39h-16.19c-1.28-4.86-4.09-7.84-11.08-7.84-8.78,0-13.38,5.79-13.38,17.64s4.86,17.55,14.83,17.55c4.35,0,7.84-1.19,10.4-2.98v-6.13h-10.99v-12.95Z"/>
      <path class="cls-1" d="M887.79,300.39l.08-10.4v-49.67h19.43l14.31,25.73c1.87,3.32,3.75,6.73,5.45,10.22h.34l-.17-10.05v-25.9h14.57l-.08,9.97.08,50.1h-17.38l-16.79-29.4c-1.79-3.07-3.49-6.13-5.11-9.37h-.34l.17,9.37v29.4h-14.57Z"/>
      <path class="cls-1" d="M971.04,283.27c0-8.09,5.28-13.29,12.87-17.04-2.64-3.92-4.17-6.99-4.17-11.25,0-9.63,8.18-15.59,19.09-15.59,10.31,0,17.21,5.11,17.21,14.06s-5.96,13.97-12.01,16.96l5.88,8.26,1.62,2.3h.34c1.19-2.73,1.79-6.05,1.79-10.05v-2.9h14.57v2.21c0,7.33-1.88,13.29-5.03,17.98v.26c.68.08,1.28.08,1.88.08,1.53,0,3.24-.43,4.77-.85l1.45,11.76c-2.47.51-5.88,1.19-9.71,1.19-4.17,0-7.58-.68-10.74-2.22-4.43,1.88-9.54,2.81-14.91,2.81-16.1,0-24.88-7.24-24.88-17.98ZM1000.44,289.06l-.77-.94-8.44-11.76c-2.64,1.79-3.83,3.58-3.83,6.05,0,4.26,3.32,6.9,9.2,6.9,1.28,0,2.64-.08,3.83-.25ZM1002.06,255.06c0-2.39-1.45-3.58-3.83-3.58-2.56,0-3.58,1.53-3.58,3.58,0,1.79.85,3.58,2.56,6.05,2.98-1.53,4.86-3.41,4.86-6.05Z"/>
      <path class="cls-1" d="M1061.54,300.39l.08-8.52v-43.03l-.08-8.44,24.28-.08c12.18-.09,23.26,2.21,23.26,15.68,0,6.05-3.15,9.97-7.75,12.01v.34c5.62,1.7,10.14,5.96,10.14,14.06,0,11.59-8.18,17.98-23.52,17.98h-26.41ZM1077.81,263.5h9.54c4,0,5.62-2.3,5.62-5.54,0-3.58-2.13-5.03-5.71-5.03h-9.46v10.57ZM1077.81,287.78h10.4c5.11,0,7.07-1.88,7.07-6.05s-1.96-5.96-6.65-5.96h-10.82v12.01Z"/>
      <path class="cls-1" d="M1121.19,275.09v-25.48l-.08-9.29h16.36l-.09,8.69v24.28c0,10.48,1.62,14.14,9.8,14.14s9.88-3.66,9.88-14.14v-24.28l-.08-8.69h16.36l-.08,9.29v25.48c0,16.87-5.45,26.16-26.07,26.16s-25.99-9.29-25.99-26.16Z"/>
      <path class="cls-1" d="M1185.52,300.39l.09-8.52v-43.03l-.09-8.52h16.36l-.08,8.52v43.03l.08,8.52h-16.36Z"/>
      <path class="cls-1" d="M1215.26,300.39l.08-14.91v-36.04l-.08-9.12h16.44l-.17,9.12v36.72h17.21l9.54-.17-.08,14.4h-42.94Z"/>
      <path class="cls-1" d="M1267.49,300.39l.08-9.97v-39.71l-.08-10.39h25.05c22.67,0,31.36,10.99,31.36,29.99s-8.86,30.08-31.87,30.08h-24.54ZM1283.76,286.76h7.41c11.42,0,16.1-3.24,16.1-16.7s-4.69-16.1-18.06-16.1h-5.45v32.8Z"/>
    </g>
  </g>
</svg>